<?xml version="1.0" encoding="UTF-8" standalone="no"?>
<!-- Created with Inkscape (http://www.inkscape.org/) -->
<svg xmlns:dc="http://purl.org/dc/elements/1.1/" xmlns:cc="http://creativecommons.org/ns#" xmlns:rdf="http://www.w3.org/1999/02/22-rdf-syntax-ns#" xmlns:svg="http://www.w3.org/2000/svg" xmlns="http://www.w3.org/2000/svg" xmlns:xlink="http://www.w3.org/1999/xlink" xmlns:sodipodi="http://sodipodi.sourceforge.net/DTD/sodipodi-0.dtd" xmlns:inkscape="http://www.inkscape.org/namespaces/inkscape" height="725.4043" id="svg1" inkscape:version="0.47 r22583" sodipodi:docname="Handshake_05_Man-Wonam_Jewel.emf" sodipodi:version="0.32" width="1097.967" inkscape:output_extension="org.inkscape.output.svg.inkscape" version="1.1">
  <defs id="defs3">
    <linearGradient inkscape:collect="always" id="linearGradient4768">
      <stop style="stop-color:#ffffff;stop-opacity:1;" offset="0" id="stop4770"/>
      <stop style="stop-color:#ffffff;stop-opacity:0;" offset="1" id="stop4772"/>
    </linearGradient>
    <inkscape:perspective sodipodi:type="inkscape:persp3d" inkscape:vp_x="0 : 375 : 1" inkscape:vp_y="0 : 1000 : 0" inkscape:vp_z="1000 : 375 : 1" inkscape:persp3d-origin="500 : 250 : 1" id="perspective24"/>
    <linearGradient id="linearGradient1549">
      <stop id="stop1550" offset="0.0000000" style="stop-color:#e1a547;stop-opacity:1.0000000;"/>
      <stop id="stop1552" offset="0.50000000" style="stop-color:#cdb250;stop-opacity:1.0000000;"/>
      <stop id="stop1551" offset="1.0000000" style="stop-color:#ffaaaa;stop-opacity:1.0000000;"/>
    </linearGradient>
    <linearGradient id="linearGradient1546">
      <stop id="stop1547" offset="0" style="stop-color:#000;stop-opacity:1;"/>
      <stop id="stop1548" offset="1" style="stop-color:#fff;stop-opacity:1;"/>
    </linearGradient>
    <linearGradient id="linearGradient1541">
      <stop id="stop1542" offset="0" style="stop-color:#000;stop-opacity:1;"/>
      <stop id="stop1543" offset="1" style="stop-color:#fff;stop-opacity:1;"/>
    </linearGradient>
    <inkscape:perspective id="perspective3614" inkscape:persp3d-origin="0.5 : 0.33333333 : 1" inkscape:vp_z="1 : 0.5 : 1" inkscape:vp_y="0 : 1000 : 0" inkscape:vp_x="0 : 0.5 : 1" sodipodi:type="inkscape:persp3d"/>
    <inkscape:perspective id="perspective3636" inkscape:persp3d-origin="0.5 : 0.33333333 : 1" inkscape:vp_z="1 : 0.5 : 1" inkscape:vp_y="0 : 1000 : 0" inkscape:vp_x="0 : 0.5 : 1" sodipodi:type="inkscape:persp3d"/>
    <inkscape:perspective id="perspective3658" inkscape:persp3d-origin="0.5 : 0.33333333 : 1" inkscape:vp_z="1 : 0.5 : 1" inkscape:vp_y="0 : 1000 : 0" inkscape:vp_x="0 : 0.5 : 1" sodipodi:type="inkscape:persp3d"/>
    <inkscape:perspective id="perspective3658-0" inkscape:persp3d-origin="0.5 : 0.33333333 : 1" inkscape:vp_z="1 : 0.5 : 1" inkscape:vp_y="0 : 1000 : 0" inkscape:vp_x="0 : 0.5 : 1" sodipodi:type="inkscape:persp3d"/>
    <inkscape:perspective id="perspective3691" inkscape:persp3d-origin="0.5 : 0.33333333 : 1" inkscape:vp_z="1 : 0.5 : 1" inkscape:vp_y="0 : 1000 : 0" inkscape:vp_x="0 : 0.5 : 1" sodipodi:type="inkscape:persp3d"/>
    <inkscape:perspective id="perspective3713" inkscape:persp3d-origin="0.5 : 0.33333333 : 1" inkscape:vp_z="1 : 0.5 : 1" inkscape:vp_y="0 : 1000 : 0" inkscape:vp_x="0 : 0.5 : 1" sodipodi:type="inkscape:persp3d"/>
    <inkscape:perspective id="perspective3713-8" inkscape:persp3d-origin="0.5 : 0.33333333 : 1" inkscape:vp_z="1 : 0.5 : 1" inkscape:vp_y="0 : 1000 : 0" inkscape:vp_x="0 : 0.5 : 1" sodipodi:type="inkscape:persp3d"/>
    <inkscape:perspective id="perspective3744" inkscape:persp3d-origin="0.5 : 0.33333333 : 1" inkscape:vp_z="1 : 0.5 : 1" inkscape:vp_y="0 : 1000 : 0" inkscape:vp_x="0 : 0.5 : 1" sodipodi:type="inkscape:persp3d"/>
    <inkscape:perspective id="perspective3744-5" inkscape:persp3d-origin="0.5 : 0.33333333 : 1" inkscape:vp_z="1 : 0.5 : 1" inkscape:vp_y="0 : 1000 : 0" inkscape:vp_x="0 : 0.5 : 1" sodipodi:type="inkscape:persp3d"/>
    <linearGradient inkscape:collect="always" xlink:href="#linearGradient4768" id="linearGradient3802" gradientUnits="userSpaceOnUse" gradientTransform="translate(-37.934629,39.997219)" x1="104.09992" y1="381.11795" x2="714.12378" y2="381.11795"/>
    <inkscape:perspective id="perspective3632" inkscape:persp3d-origin="0.5 : 0.33333333 : 1" inkscape:vp_z="1 : 0.5 : 1" inkscape:vp_y="0 : 1000 : 0" inkscape:vp_x="0 : 0.5 : 1" sodipodi:type="inkscape:persp3d"/>
    <inkscape:perspective id="perspective3654" inkscape:persp3d-origin="0.5 : 0.33333333 : 1" inkscape:vp_z="1 : 0.5 : 1" inkscape:vp_y="0 : 1000 : 0" inkscape:vp_x="0 : 0.5 : 1" sodipodi:type="inkscape:persp3d"/>
    <inkscape:perspective id="perspective3654-4" inkscape:persp3d-origin="0.5 : 0.33333333 : 1" inkscape:vp_z="1 : 0.5 : 1" inkscape:vp_y="0 : 1000 : 0" inkscape:vp_x="0 : 0.5 : 1" sodipodi:type="inkscape:persp3d"/>
    <inkscape:perspective id="perspective3654-9" inkscape:persp3d-origin="0.5 : 0.33333333 : 1" inkscape:vp_z="1 : 0.5 : 1" inkscape:vp_y="0 : 1000 : 0" inkscape:vp_x="0 : 0.5 : 1" sodipodi:type="inkscape:persp3d"/>
    <inkscape:perspective id="perspective3654-8" inkscape:persp3d-origin="0.5 : 0.33333333 : 1" inkscape:vp_z="1 : 0.5 : 1" inkscape:vp_y="0 : 1000 : 0" inkscape:vp_x="0 : 0.5 : 1" sodipodi:type="inkscape:persp3d"/>
    <inkscape:perspective id="perspective3654-2" inkscape:persp3d-origin="0.5 : 0.33333333 : 1" inkscape:vp_z="1 : 0.5 : 1" inkscape:vp_y="0 : 1000 : 0" inkscape:vp_x="0 : 0.5 : 1" sodipodi:type="inkscape:persp3d"/>
    <inkscape:perspective id="perspective3654-5" inkscape:persp3d-origin="0.5 : 0.33333333 : 1" inkscape:vp_z="1 : 0.5 : 1" inkscape:vp_y="0 : 1000 : 0" inkscape:vp_x="0 : 0.5 : 1" sodipodi:type="inkscape:persp3d"/>
    <inkscape:perspective id="perspective3654-7" inkscape:persp3d-origin="0.5 : 0.33333333 : 1" inkscape:vp_z="1 : 0.5 : 1" inkscape:vp_y="0 : 1000 : 0" inkscape:vp_x="0 : 0.5 : 1" sodipodi:type="inkscape:persp3d"/>
    <inkscape:perspective id="perspective3654-52" inkscape:persp3d-origin="0.5 : 0.33333333 : 1" inkscape:vp_z="1 : 0.5 : 1" inkscape:vp_y="0 : 1000 : 0" inkscape:vp_x="0 : 0.5 : 1" sodipodi:type="inkscape:persp3d"/>
    <inkscape:perspective id="perspective3654-1" inkscape:persp3d-origin="0.5 : 0.33333333 : 1" inkscape:vp_z="1 : 0.5 : 1" inkscape:vp_y="0 : 1000 : 0" inkscape:vp_x="0 : 0.5 : 1" sodipodi:type="inkscape:persp3d"/>
    <inkscape:perspective id="perspective3654-3" inkscape:persp3d-origin="0.5 : 0.33333333 : 1" inkscape:vp_z="1 : 0.5 : 1" inkscape:vp_y="0 : 1000 : 0" inkscape:vp_x="0 : 0.5 : 1" sodipodi:type="inkscape:persp3d"/>
    <inkscape:perspective id="perspective3757" inkscape:persp3d-origin="0.5 : 0.33333333 : 1" inkscape:vp_z="1 : 0.5 : 1" inkscape:vp_y="0 : 1000 : 0" inkscape:vp_x="0 : 0.5 : 1" sodipodi:type="inkscape:persp3d"/>
    <inkscape:perspective id="perspective3779" inkscape:persp3d-origin="0.5 : 0.33333333 : 1" inkscape:vp_z="1 : 0.5 : 1" inkscape:vp_y="0 : 1000 : 0" inkscape:vp_x="0 : 0.5 : 1" sodipodi:type="inkscape:persp3d"/>
    <inkscape:perspective id="perspective3801" inkscape:persp3d-origin="0.5 : 0.33333333 : 1" inkscape:vp_z="1 : 0.5 : 1" inkscape:vp_y="0 : 1000 : 0" inkscape:vp_x="0 : 0.5 : 1" sodipodi:type="inkscape:persp3d"/>
    <inkscape:perspective id="perspective3801-8" inkscape:persp3d-origin="0.5 : 0.33333333 : 1" inkscape:vp_z="1 : 0.5 : 1" inkscape:vp_y="0 : 1000 : 0" inkscape:vp_x="0 : 0.5 : 1" sodipodi:type="inkscape:persp3d"/>
    <inkscape:perspective id="perspective3832" inkscape:persp3d-origin="0.5 : 0.33333333 : 1" inkscape:vp_z="1 : 0.5 : 1" inkscape:vp_y="0 : 1000 : 0" inkscape:vp_x="0 : 0.5 : 1" sodipodi:type="inkscape:persp3d"/>
    <inkscape:perspective id="perspective3854" inkscape:persp3d-origin="0.5 : 0.33333333 : 1" inkscape:vp_z="1 : 0.5 : 1" inkscape:vp_y="0 : 1000 : 0" inkscape:vp_x="0 : 0.5 : 1" sodipodi:type="inkscape:persp3d"/>
    <inkscape:perspective id="perspective3876" inkscape:persp3d-origin="0.5 : 0.33333333 : 1" inkscape:vp_z="1 : 0.5 : 1" inkscape:vp_y="0 : 1000 : 0" inkscape:vp_x="0 : 0.5 : 1" sodipodi:type="inkscape:persp3d"/>
  </defs>
  <sodipodi:namedview bordercolor="#666666" borderopacity="1.0" id="base" inkscape:cx="182.75208" inkscape:cy="308.86216" inkscape:pageopacity="0.0000000" inkscape:pageshadow="2" inkscape:window-height="1108" inkscape:window-width="1888" inkscape:window-x="6" inkscape:window-y="4" inkscape:zoom="0.6727954" pagecolor="#ffffff" showgrid="false" inkscape:current-layer="svg1" inkscape:window-maximized="0"/>
  <g id="g3890">
    <path transform="translate(-34.137998,1.7506634)" d="m 687.1372,175.25685 a 20.132683,20.132683 0 1 1 -40.26537,0 20.132683,20.132683 0 1 1 40.26537,0 z" sodipodi:ry="20.132683" sodipodi:rx="20.132683" sodipodi:cy="175.25685" sodipodi:cx="667.00452" id="path2850-1-2" style="fill:#ffffff;fill-opacity:1;stroke:#000000;stroke-width:0.5;stroke-miterlimit:4;stroke-opacity:1;stroke-dasharray:none" sodipodi:type="arc"/>
    <path inkscape:transform-center-y="36.326363" inkscape:transform-center-x="-35.451029" transform="translate(84.907437,231.96352)" d="m 687.1372,175.25685 a 20.132683,20.132683 0 1 1 -40.26537,0 20.132683,20.132683 0 1 1 40.26537,0 z" sodipodi:ry="20.132683" sodipodi:rx="20.132683" sodipodi:cy="175.25685" sodipodi:cx="667.00452" id="path2850-1-42" style="fill:#ffffff;fill-opacity:1;stroke:#000000;stroke-width:0.5;stroke-miterlimit:4;stroke-opacity:1;stroke-dasharray:none" sodipodi:type="arc"/>
    <path inkscape:export-ydpi="3.4325387" inkscape:export-xdpi="3.4325387" inkscape:export-filename="/home/z/Zend/workspaces/DefaultWorkspace/Flotilla/templates/images/ico/handshake.png" d="m 67.665293,233.26321 c 53.271527,-5.42895 106.543067,-10.85789 159.814607,-16.28684 8.14342,-5.08964 16.28684,-10.17927 24.43026,-15.26891 18.66201,-7.4648 37.32401,-16.96546 55.98602,-24.43027 16.62615,-10.17927 29.9381,-22.14516 46.82466,-25.44818 19.36285,-3.78738 47.50329,-2.37517 68.20115,7.12549 43.77088,63.11151 87.54177,126.22301 131.31265,189.33452 36.30608,35.96677 72.61216,71.93354 108.91824,107.90031 15.60822,21.03717 13.74917,54.429 4.07171,69.21907 -8.30593,12.69397 -38.68125,21.03717 -58.02187,13.23306 1.35724,17.30477 -2.37516,37.66332 -11.1972,48.86052 -11.87582,7.80411 -32.91299,14.5903 -47.84259,11.19721 4.07171,14.59029 -2.69985,34.92334 -12.21513,43.77088 -9.82534,9.13584 -23.41233,14.9296 -45.80674,10.17927 -1.35724,7.4648 -1.25119,17.05046 -6.23106,21.67463 -9.27112,8.60889 -23.62815,12.25629 -36.5219,18.02455 C 266.16115,596.32403 199.99586,594.96678 108.38239,577.32271 95.149333,476.54789 80.898343,334.03803 67.665293,233.26321 z" id="path4929" sodipodi:nodetypes="ccccscccscccscsccc" style="fill:#ffcaa1;fill-opacity:0.99899298;fill-rule:evenodd;stroke:#000000;stroke-width:3;stroke-linecap:butt;stroke-linejoin:miter;stroke-miterlimit:4;stroke-opacity:1;stroke-dasharray:none"/>
    <path inkscape:export-ydpi="3.4325387" inkscape:export-xdpi="3.4325387" inkscape:export-filename="/home/z/Zend/workspaces/DefaultWorkspace/Flotilla/templates/images/ico/handshake.png" d="m 67.665293,233.26321 c 53.271527,-5.42895 106.543067,-10.85789 159.814607,-16.28684 8.14342,-5.08964 16.28684,-10.17927 24.43026,-15.26891 18.66201,-7.4648 37.32401,-16.96546 55.98602,-24.43027 16.62615,-10.17927 29.9381,-22.14516 46.82466,-25.44818 19.36285,-3.78738 47.50329,-2.37517 68.20115,7.12549 43.77088,63.11151 87.54177,126.22301 131.31265,189.33452 36.30608,35.96677 72.61216,71.93354 108.91824,107.90031 15.60822,21.03717 13.74917,54.429 4.07171,69.21907 -8.30593,12.69397 -38.68125,21.03717 -58.02187,13.23306 1.35724,17.30477 -2.37516,37.66332 -11.1972,48.86052 -11.87582,7.80411 -32.91299,14.5903 -47.84259,11.19721 4.07171,14.59029 -2.69985,34.92334 -12.21513,43.77088 -9.82534,9.13584 -23.41233,14.9296 -45.80674,10.17927 -1.35724,7.4648 -1.25119,17.05046 -6.23106,21.67463 -9.27112,8.60889 -11.80767,22.30166 -36.5219,18.02455 C 424.9743,688.1234 199.99586,594.96678 108.38239,577.32271 95.149333,476.54789 80.898343,334.03803 67.665293,233.26321 z" id="path3183" sodipodi:nodetypes="ccccscccscccscszcc" style="fill:url(#linearGradient3802);fill-opacity:1;fill-rule:evenodd;stroke:none"/>
    <path inkscape:export-ydpi="3.4325387" inkscape:export-xdpi="3.4325387" inkscape:export-filename="/home/z/Zend/workspaces/DefaultWorkspace/Flotilla/templates/images/ico/handshake.png" d="m 228.38524,554.62803 c -7.49828,8.21241 -15.58947,30.47907 -18.71437,43.18701 -0.47401,1.92766 5.43326,-1.42147 7.19784,0 6.15304,8.41557 10.87844,16.98865 20.54013,24.77785 4.79255,3.86373 19.87522,14.09152 24.80633,12.92931 -0.5728,7.35025 1.61754,6.54711 5.16921,14.27285 3.39363,7.38196 17.42299,15.77374 23.52202,17.48363 7.72281,2.16511 21.6539,0.62683 21.6539,0.62683 0,0 0.76377,7.28348 9.53565,17.41708 6.62283,7.65093 10.19058,9.89534 19.86531,13.19626 14.49106,4.53444 17.74222,4.29169 29.84157,3.52202 12.16295,-0.77372 32.53126,-5.0852 45.4939,-6.45394 11.17058,-1.17951 22.83141,-3.18389 28.44913,-8.83522 6.52453,-6.56356 8.80657,-20.93351 -0.92843,-24.56646 -13.03491,-4.86443 -33.08849,-6.53013 -41.1914,-10.06299 4.48285,-5.58466 31.66049,-10.82471 31.84121,-16.35337 0.40747,-12.46551 -1.46669,-20.47807 -14.39356,-25.18107 -16.08902,-5.85345 -47.09036,-6.15181 -61.99542,-1.88041 1.43183,-1.57421 21.33639,-11.07831 26.3767,-16.21409 8.85071,-9.01835 4.10732,-15.52852 3.78095,-20.4367 -0.37481,-5.63679 -15.05612,-9.72492 -20.7011,-10.82397 -14.97477,-2.91554 -20.75623,-1.34574 -38.2804,3.60664 -26.53017,7.4975 -33.18517,10.23149 -50.2293,12.62665 -14.40634,2.02447 -17.04719,0.59735 -24.89194,-0.64056 -6.60889,-3.53167 -10.22034,-5.35655 -15.23139,-12.12038 -3.12037,-4.21182 -6.05872,-7.14297 -11.51654,-10.07697 z" id="path3686" sodipodi:nodetypes="cscscsscscsssscsscssssscsc" style="fill:#ffd8b4;fill-opacity:1;fill-rule:evenodd;stroke:#000000;stroke-width:3;stroke-linecap:butt;stroke-linejoin:miter;stroke-miterlimit:4;stroke-opacity:1;stroke-dasharray:none"/>
    <path inkscape:export-ydpi="3.4325387" inkscape:export-xdpi="3.4325387" inkscape:export-filename="/home/z/Zend/workspaces/DefaultWorkspace/Flotilla/templates/images/ico/handshake.png" d="m 1.5,196.61782 c 74.987323,6.78618 150.25685,11.30733 224.96198,20.35855 34.80866,4.21739 30.44076,173.50215 21.37647,257.53566 -7.22255,66.95907 -41.05593,134.06122 -70.23699,195.44208 -10.1788,21.41058 -32.91291,53.95016 -47.8426,53.95016 -15.26883,0 -85.505906,-19.67993 -128.25886,-29.5199 l 0,-497.76655 z" id="path8038" sodipodi:nodetypes="csssscc" style="fill:#8e8e8e;fill-opacity:1;fill-rule:evenodd;stroke:#000000;stroke-width:3;stroke-linecap:butt;stroke-linejoin:miter;stroke-miterlimit:4;stroke-opacity:1;stroke-dasharray:none"/>
    <path inkscape:export-ydpi="3.4325387" inkscape:export-xdpi="3.4325387" inkscape:export-filename="/home/z/Zend/workspaces/DefaultWorkspace/Flotilla/templates/images/ico/handshake.png" d="m 768.10301,118.90495 -11.9596,4.77035 -4.25813,14.52113 94.47461,275.95254 12.66503,7.42439 7.23118,1.62096 7.89468,-4.5352 4.82094,-40.04442 -15.62942,-93.9214 -33.66951,-106.13301 -41.01006,-56.76615 -20.55972,-2.88919 z" id="path13008" style="fill:#404f60;fill-opacity:1;fill-rule:evenodd;stroke:#000000;stroke-width:1pt;stroke-linecap:butt;stroke-linejoin:miter;stroke-opacity:0"/>
    <path inkscape:export-ydpi="3.4325387" inkscape:export-xdpi="3.4325387" inkscape:export-filename="/home/z/Zend/workspaces/DefaultWorkspace/Flotilla/templates/images/ico/handshake.png" d="m 627.80523,187.35512 c -12.21513,3.05378 -32.70159,3.74978 -44.96632,2.13721 -13.40471,-1.76246 -26.4964,-4.05349 -57.07116,-9.19199 -31.1462,-5.23453 -29.08332,-7.13168 -56.94016,-3.22991 -34.29971,4.80419 -38.23369,8.96011 -63.27387,19.99495 -30.19852,20.69786 -78.03032,45.343 -87.11398,60.36268 -9.84787,16.28329 -47.86757,46.41146 -48.20688,61.34106 -8.48273,16.28684 -21.44213,31.4516 -22.56906,49.5803 -1.64722,26.49875 34.75983,17.47706 49.62532,11.4558 10.88463,-4.40881 22.02075,-8.51708 30.84279,-14.96395 21.55639,-20.85881 35.19516,-31.23486 53.05505,-57.26935 18.56968,-5.98407 29.22175,-12.68792 42.75295,-24.43026 7.34131,7.53714 18.28153,5.7171 28.50197,1.01792 -1.37964,17.39709 83.61474,54.22833 103.82861,65.14737 35.50397,37.36517 70.28815,69.69186 107.95147,106.33725 1.35723,4.07171 5.5936,11.74234 6.95084,15.81405 5.42895,-3.05378 4.0901,-5.8016 11.88118,-14.41335 7.37633,-8.15331 18.42991,-24.30751 27.03361,-28.72885 8.6037,-4.42134 64.60384,-36.06595 110.13756,-56.06754 69.33697,-30.45764 113.74002,-26.2613 135.79848,-36.12544 22.57545,-10.09532 -107.51957,-145.35139 -134.66431,-236.286247 -9.73572,5.345107 -48.82978,28.132307 -97.78441,49.818547 -38.05981,16.85999 -88.20063,33.5442 -95.76968,37.69975 z" id="path919" sodipodi:nodetypes="cszscscssccccccczzszcsc" style="fill:#ffd8b4;fill-opacity:1;fill-rule:nonzero;stroke:#000000;stroke-width:3;stroke-linecap:butt;stroke-linejoin:miter;stroke-miterlimit:4;stroke-opacity:1;stroke-dasharray:none"/>
    <path inkscape:export-ydpi="3.4325387" inkscape:export-xdpi="3.4325387" inkscape:export-filename="/home/z/Zend/workspaces/DefaultWorkspace/Flotilla/templates/images/ico/handshake.png" d="m 745.2057,136.10287 c -1.39531,-5.95459 4.06264,-18.07352 14.96636,-23.29761 C 864.65477,63.956787 996.85804,39.477086 1097.6942,2.375334 l -1.2271,354.040436 c -111.66232,25.5337 -158.58399,42.2754 -230.55807,68.39719 -2.11891,0.0764 -17.81628,-2.67206 -24.66624,-15.39423 -6.87193,-12.76298 -11.73849,-35.54894 -10.51839,-39.14737 1.22009,-3.59843 2.41308,-4.34944 3.57944,-0.59297 1.20994,3.89686 3.83459,24.25075 9.27193,32.61454 6.77947,10.42827 16.54443,8.70113 17.30657,8.38854 5.90532,-2.42214 8.29413,-15.56939 6.74015,-26.7528 -6.59803,-47.48351 -12.99586,-96.88759 -28.61343,-142.11251 -14.18587,-41.07902 -28.55401,-97.34401 -60.7969,-116.7993 -4.66603,-2.81547 -12.47906,-4.70067 -17.50094,-2.89118 -3.9674,1.42953 -7.85931,6.57241 -9.46694,12.60824 l -6.03858,1.36895 z" id="path9902" sodipodi:nodetypes="cccccszssssssscc" style="fill:#ffe8ff;fill-opacity:1;fill-rule:evenodd;stroke:#000000;stroke-width:3;stroke-linecap:butt;stroke-linejoin:miter;stroke-miterlimit:4;stroke-opacity:1;stroke-dasharray:none"/>
    <path sodipodi:nodetypes="css" id="path3604" d="m 262.69854,635.22845 c 0,0 38.15334,-8.42856 66.31507,-16.99952 24.62671,-7.49509 19.01069,-5.49513 44.56549,-17.04811" style="fill:none;stroke:#000000;stroke-width:3;stroke-linecap:butt;stroke-linejoin:miter;stroke-miterlimit:4;stroke-opacity:1;stroke-dasharray:none"/>
    <path sodipodi:nodetypes="css" id="path3604-1" d="m 313.37921,668.17498 c 0,0 30.3338,-5.87366 56.46623,-10.41068 20.47648,-3.55505 3.81835,-1.37255 39.32661,-5.8621" style="fill:none;stroke:#000000;stroke-width:3;stroke-linecap:butt;stroke-linejoin:miter;stroke-miterlimit:4;stroke-opacity:1;stroke-dasharray:none"/>
    <path sodipodi:nodetypes="css" id="path3604-1-7" d="m 515.28529,461.71317 c 0,0 29.61934,23.59668 50.24788,38.99522 22.95298,17.13365 12.35364,16.76357 42.15787,36.58023" style="fill:none;stroke:#000000;stroke-width:3;stroke-linecap:butt;stroke-linejoin:miter;stroke-miterlimit:4;stroke-opacity:1;stroke-dasharray:none"/>
    <path sodipodi:nodetypes="css" id="path3604-1-7-4" d="m 459.44083,523.05392 c 0,0 29.61934,23.59668 50.24788,38.99522 22.95298,17.13365 12.35364,16.76357 42.15787,36.58023" style="fill:none;stroke:#000000;stroke-width:3;stroke-linecap:butt;stroke-linejoin:miter;stroke-miterlimit:4;stroke-opacity:1;stroke-dasharray:none"/>
    <path sodipodi:nodetypes="css" id="path3604-1-7-9" d="m 412.23936,580.15248 c 0,0 23.02456,15.34958 41.11211,33.66602 21.43035,21.70154 16.16021,10.67306 39.87393,38.10286" style="fill:none;stroke:#000000;stroke-width:3;stroke-linecap:butt;stroke-linejoin:miter;stroke-miterlimit:4;stroke-opacity:1;stroke-dasharray:none"/>
    <path sodipodi:nodetypes="czczzsssszzzz" id="path3681" d="m 246.49187,371.72125 0,0 m 1.62477,11.06381 c 3.91893,1.2967 6.97888,3.23481 13.0754,0.69632 6.09652,-2.53849 14.1586,-10.98644 20.65762,-18.25916 6.49902,-7.27272 16.71178,-21.97289 18.25916,-25.84135 1.54739,-3.86847 4.48742,-10.21275 2.63056,-12.22436 -1.85686,-2.0116 -22.90132,-3.86846 -25.99609,-3.24951 -3.09478,0.61896 -7.50483,0.46422 -8.12378,1.23792 -0.61896,0.77369 -10.85553,16.63002 -13.46226,22.205 -2.60674,5.57497 -2.62587,5.32004 -3.79111,9.82589 -1.16523,4.50584 -4.4808,11.51633 -4.33268,14.54542 0.14812,3.02909 -2.83575,9.76713 1.08318,11.06383 z" style="fill:#ffffff;fill-opacity:0.37104073;stroke:#000000;stroke-width:0.50000000000000000;stroke-linecap:butt;stroke-linejoin:miter;stroke-miterlimit:4;stroke-opacity:1;stroke-dasharray:none"/>
    <path sodipodi:nodetypes="czcszccssccssszcc" id="path3681-2-1-1" d="m 379.66135,590.50608 1.81147,-0.74317 m 12.05348,-7.40462 c 0.0148,-0.68907 -0.0143,-6.15021 -1.00041,-8.78554 -0.88026,-2.35251 -2.59409,-6.70322 -6.44903,-8.90728 -3.8748,-2.21541 -4.85923,-1.35323 -7.8202,-1.08192 -2.26773,0.23851 -4.52356,0.28324 -5.91705,0.38904 1.03006,4.09523 1.57472,6.50752 2.18573,9.46746 0.82768,4.00955 0.59349,2.12523 1.86905,9.15046 1.00234,5.52046 0.6363,5.72986 0.0569,7.10235 1.11246,0.002 2.09543,0.98027 4.03228,0.52242 1.25877,-0.39743 4.1031,-1.65636 5.90682,-2.59922 1.4002,-0.73194 0.94252,-0.54021 1.79295,-1.24646 0.56884,-0.47238 0.90556,-0.41434 1.49259,-0.94186 0.77559,-0.69697 1.11589,-0.98382 1.66728,-1.39735 l 1.11478,-0.83607 1.06831,-0.83603 z" style="fill:#ffd8b4;fill-opacity:1;stroke:none"/>
    <path sodipodi:nodetypes="czcssssssszzzc" id="path3681-4" d="m 397.79408,580.98054 0,0 m 0.49167,-10.61698 c -1.31749,-3.09518 -1.06806,-5.30414 -5.70805,-6.5821 -8.07565,-2.22422 -16.14133,0.39219 -25.12906,0.003 -8.98771,-0.38954 -23.05358,4.06735 -26.83268,5.8217 -3.77912,1.75435 -6.42261,3.20907 -6.81612,8.33096 -0.36484,4.74865 1.92402,10.35076 3.51931,13.73886 2.0912,4.4413 5.41217,8.37695 8.00398,9.03902 3.84449,0.98206 13.9177,-1.91722 22.93251,-5.37752 7.5373,-2.89317 6.74024,-2.07262 10.777,-3.98605 4.06621,-1.9274 8.21148,-3.17842 10.59543,-5.66309 2.38394,-2.48468 9.78847,-4.39264 8.98593,-12.15135 l -0.32825,-3.17343 z" style="fill:#ffffff;fill-opacity:0.37104073;stroke:#000000;stroke-width:0.62500000000000000;stroke-linecap:butt;stroke-linejoin:miter;stroke-opacity:1;stroke-miterlimit:4;stroke-dasharray:none"/>
    <path sodipodi:nodetypes="czcszccssccssszc" id="path3681-2-1-6-6" d="m 434.09841,636.02511 0,0 m 6.57262,-6.15053 c 0.0148,-0.68907 0.0321,-1.41251 -0.95396,-4.04784 -0.88026,-2.35251 0.90936,-3.25473 -2.36161,-5.93461 -3.27097,-2.67989 -1.28273,-4.27945 -9.16719,-8.09556 -1.38522,-0.27242 -6.98531,0.14391 -7.68208,0.24972 1.03006,4.09523 6.03373,4.69605 6.64474,7.65599 0.82768,4.00955 0.59349,2.12523 1.86905,9.15046 1.00234,5.52046 0.6363,5.72986 0.0569,7.10235 1.11246,0.002 1.6774,0.2371 3.61425,-0.22075 1.25877,-0.39743 1.03886,-0.20764 2.74836,-0.92709 1.53652,-0.64666 1.91792,-0.86534 2.95414,-1.3858 0.66075,-0.33187 1.16151,-0.6755 1.86418,-1.31345 0.62977,-0.57177 0.41317,-0.52232 0.41319,-1.21156 l 3e-5,-1.02186 z" style="fill:#ffd8b4;fill-opacity:1;stroke:none"/>
    <path inkscape:transform-center-x="-5.2520043" sodipodi:nodetypes="czcssssssszzz" id="path3681-4-4" d="m 440.34319,637.59341 0,0 m 5.47295,-8.59985 c 0.9698,-2.50761 2.02398,-11.66232 -2.42802,-14.31496 -7.74616,-4.6154 -17.58131,-2.50809 -27.4582,-2.70546 -8.99443,-0.17584 -25.88545,3.39625 -29.91223,4.4664 -4.0268,1.06975 -6.82117,4.03891 -7.32531,6.72969 -0.50417,2.69078 2.20744,12.34777 3.66605,15.14656 2.14723,4.1201 8.79925,5.65303 9.78947,5.68727 0.99022,0.0343 8.26473,0.51399 17.74424,-1.32431 7.92584,-1.53701 6.18439,-1.00063 9.86752,-2.08139 3.68313,-1.08076 0.39161,-0.11941 6.96319,-2.40888 6.57158,-2.28947 18.1235,-6.6873 19.09329,-9.19492 z" style="fill:#ffffff;fill-opacity:0.37104073;stroke:#000000;stroke-width:0.62500000000000000;stroke-linecap:butt;stroke-linejoin:miter;stroke-opacity:1;stroke-miterlimit:4;stroke-dasharray:none"/>
    <path sodipodi:nodetypes="czcsszsccsscscssszc" id="path3681-2-1-5-7" d="m 449.31696,685.99792 0,0 m 9.87373,-9.89801 c 0.0476,-1.05035 0.26862,-0.58139 -0.14744,-2.08793 -0.31591,-1.14389 -0.1717,-1.96568 -0.54504,-2.63026 -0.47568,-0.84675 -0.91959,-2.56365 -1.73865,-3.83724 -0.83292,-1.29513 -2.77655,-1.72015 -4.09309,-2.10707 -1.61434,-0.47444 -3.00609,-0.057 -3.98406,-0.27756 -1.38522,-0.27242 -4.89241,-0.001 -5.58918,0.10434 0.37319,4.09523 0.63585,3.55296 0.72137,6.44721 0.12092,4.0923 0.39643,1.00854 0.42393,7.11415 0.0253,5.61066 -2.43923,9.20434 -2.43923,9.20434 0,0 1.84819,-0.32706 3.78185,-1.01293 1.32276,-0.46918 3.39174,-0.71203 4.17848,-1.16483 1.25877,-0.39743 2.78204,-1.0617 4.34023,-2.06769 1.53652,-0.992 1.11043,-1.77369 1.96086,-2.47994 0.56884,-0.47238 1.75107,-1.93343 2.01576,-2.67695 0.26466,-0.74342 0.44105,-0.76717 0.68721,-1.41095 l 0.427,-1.11669 z" style="fill:#ffd8b4;fill-opacity:1;stroke:none"/>
    <path sodipodi:nodetypes="czczsssssszzz" id="path3681-4-5" d="m 461.36551,685.88403 0,0 m 0.33141,-7.39991 c 0.92834,-2.13274 2.93439,-4.27383 -0.73906,-9.14029 -3.67346,-4.86647 -9.34928,-4.52474 -17.61946,-4.47721 -7.39329,0.0425 -23.49032,1.71453 -26.86008,2.46674 -3.36976,0.7522 -6.15112,4.35187 -6.65061,6.3773 -0.4995,2.02543 1.73173,11.48863 2.85565,13.62284 1.65453,3.14176 7.71122,3.67512 8.53084,3.71471 0.81963,0.0396 6.84803,-0.48795 14.76017,-1.74509 6.61537,-1.05111 4.63473,-0.60263 8.2411,-1.43538 3.63269,-0.83883 4.78591,-1.25078 8.7002,-2.87883 3.91431,-1.62805 7.85291,-4.37206 8.78125,-6.50479 z" style="fill:#ffffff;fill-opacity:0.37104073;stroke:#000000;stroke-width:0.62500000000000000;stroke-linecap:butt;stroke-linejoin:miter;stroke-opacity:1;stroke-miterlimit:4;stroke-dasharray:none"/>
    <path transform="translate(-20.132684,-17.069014)" d="m 687.1372,175.25685 a 20.132683,20.132683 0 1 1 -40.26537,0 20.132683,20.132683 0 1 1 40.26537,0 z" sodipodi:ry="20.132683" sodipodi:rx="20.132683" sodipodi:cy="175.25685" sodipodi:cx="667.00452" id="path2850" style="fill:#ffffff;fill-opacity:1;stroke:#000000;stroke-width:0.5;stroke-miterlimit:4;stroke-opacity:1;stroke-dasharray:none" sodipodi:type="arc"/>
    <path transform="translate(0.65008805,-1.8879728)" d="m 687.1372,175.25685 a 20.132683,20.132683 0 1 1 -40.26537,0 20.132683,20.132683 0 1 1 40.26537,0 z" sodipodi:ry="20.132683" sodipodi:rx="20.132683" sodipodi:cy="175.25685" sodipodi:cx="667.00452" id="path2850-1" style="fill:#ffffff;fill-opacity:1;stroke:#000000;stroke-width:0.5;stroke-miterlimit:4;stroke-opacity:1;stroke-dasharray:none" sodipodi:type="arc"/>
    <path transform="translate(17.50671,26.260017)" d="m 687.1372,175.25685 a 20.132683,20.132683 0 1 1 -40.26537,0 20.132683,20.132683 0 1 1 40.26537,0 z" sodipodi:ry="20.132683" sodipodi:rx="20.132683" sodipodi:cy="175.25685" sodipodi:cx="667.00452" id="path2850-1-7" style="fill:#ffffff;fill-opacity:1;stroke:#000000;stroke-width:0.5;stroke-miterlimit:4;stroke-opacity:1;stroke-dasharray:none" sodipodi:type="arc"/>
    <path transform="translate(35.013392,51.644702)" d="m 687.1372,175.25685 a 20.132683,20.132683 0 1 1 -40.26537,0 20.132683,20.132683 0 1 1 40.26537,0 z" sodipodi:ry="20.132683" sodipodi:rx="20.132683" sodipodi:cy="175.25685" sodipodi:cx="667.00452" id="path2850-1-0" style="fill:#ffffff;fill-opacity:1;stroke:#000000;stroke-width:0.5;stroke-miterlimit:4;stroke-opacity:1;stroke-dasharray:none" sodipodi:type="arc"/>
    <path transform="translate(50.331736,76.591722)" d="m 687.1372,175.25685 a 20.132683,20.132683 0 1 1 -40.26537,0 20.132683,20.132683 0 1 1 40.26537,0 z" sodipodi:ry="20.132683" sodipodi:rx="20.132683" sodipodi:cy="175.25685" sodipodi:cx="667.00452" id="path2850-1-4" style="fill:#ffffff;fill-opacity:1;stroke:#000000;stroke-width:0.5;stroke-miterlimit:4;stroke-opacity:1;stroke-dasharray:none" sodipodi:type="arc"/>
    <path transform="translate(63.461748,101.97642)" d="m 687.1372,175.25685 a 20.132683,20.132683 0 1 1 -40.26537,0 20.132683,20.132683 0 1 1 40.26537,0 z" sodipodi:ry="20.132683" sodipodi:rx="20.132683" sodipodi:cy="175.25685" sodipodi:cx="667.00452" id="path2850-1-8" style="fill:#ffffff;fill-opacity:1;stroke:#000000;stroke-width:0.5;stroke-miterlimit:4;stroke-opacity:1;stroke-dasharray:none" sodipodi:type="arc"/>
    <path transform="translate(77.029426,128.23644)" d="m 687.1372,175.25685 a 20.132683,20.132683 0 1 1 -40.26537,0 20.132683,20.132683 0 1 1 40.26537,0 z" sodipodi:ry="20.132683" sodipodi:rx="20.132683" sodipodi:cy="175.25685" sodipodi:cx="667.00452" id="path2850-1-45" style="fill:#ffffff;fill-opacity:1;stroke:#000000;stroke-width:0.5;stroke-miterlimit:4;stroke-opacity:1;stroke-dasharray:none" sodipodi:type="arc"/>
    <path transform="translate(87.971106,154.05879)" d="m 687.1372,175.25685 a 20.132683,20.132683 0 1 1 -40.26537,0 20.132683,20.132683 0 1 1 40.26537,0 z" sodipodi:ry="20.132683" sodipodi:rx="20.132683" sodipodi:cy="175.25685" sodipodi:cx="667.00452" id="path2850-1-1" style="fill:#ffffff;fill-opacity:1;stroke:#000000;stroke-width:0.5;stroke-miterlimit:4;stroke-opacity:1;stroke-dasharray:none" sodipodi:type="arc"/>
    <path transform="translate(94.098437,183.82015)" d="m 687.1372,175.25685 a 20.132683,20.132683 0 1 1 -40.26537,0 20.132683,20.132683 0 1 1 40.26537,0 z" sodipodi:ry="20.132683" sodipodi:rx="20.132683" sodipodi:cy="175.25685" sodipodi:cx="667.00452" id="path2850-1-11" style="fill:#ffffff;fill-opacity:1;stroke:#000000;stroke-width:0.5;stroke-miterlimit:4;stroke-opacity:1;stroke-dasharray:none" sodipodi:type="arc"/>
    <path inkscape:transform-center-y="20.382683" inkscape:transform-center-x="-36.326363" transform="translate(99.788111,212.2685)" d="m 687.1372,175.25685 a 20.132683,20.132683 0 1 1 -40.26537,0 20.132683,20.132683 0 1 1 40.26537,0 z" sodipodi:ry="20.132683" sodipodi:rx="20.132683" sodipodi:cy="175.25685" sodipodi:cx="667.00452" id="path2850-1-76" style="fill:#ffffff;fill-opacity:1;stroke:#000000;stroke-width:0.5;stroke-miterlimit:4;stroke-opacity:1;stroke-dasharray:none" sodipodi:type="arc"/>
    <path sodipodi:nodetypes="czcszccssccsssz" id="path3681-2" d="m 246.62206,371.20818 0,0 m 1.62477,11.06381 c 0.62831,0.28332 2.66877,1.7252 5.47981,1.84921 2.50936,0.1107 3.84927,0.80827 7.59559,-1.15289 3.74632,-1.96116 3.77495,-1.85785 10.3725,-7.61976 0.79285,-1.16809 2.05951,-1.76841 2.23485,-2.45101 -4.17169,-0.65493 -6.60472,-1.09786 -9.56768,-1.69407 -4.01363,-0.80763 -2.18797,-0.28564 -9.15201,-1.86142 -5.47237,-1.23826 -5.52181,-1.65705 -6.55805,-2.72738 -0.4374,1.02287 -0.98724,2.66479 -1.32397,4.62633 -0.12694,1.3139 -0.18826,3.36923 -0.49673,5.19812 -0.26276,1.55796 -0.59992,2.43472 -0.28286,3.49373 0.21206,0.70834 -0.12168,1.03022 0.45893,1.5648 0.58053,0.53451 0.61131,0.49102 1.23962,0.77434 z" style="fill:#ffffff;fill-opacity:1;stroke:none"/>
    <path sodipodi:nodetypes="czcszsccssccssszc" id="path3681-2-1" d="m 388.71124,582.17372 0,0 m 9.54529,-5.82539 c 0.0148,-0.68907 0.0786,-3.13109 -0.35013,-5.95221 -0.37737,-2.4833 -1.65854,-4.0469 -2.68675,-5.0521 -1.02822,-1.00519 -1.90598,-1.03169 -3.14938,-1.36657 -3.99912,-1.07705 -4.87063,-0.82423 -7.03967,-0.83009 -1.38522,-0.27242 -3.03722,0.19036 -3.73399,0.29617 1.03006,4.09523 2.17854,8.22609 2.78955,11.18603 0.82768,4.00955 -0.0103,0.0351 1.26523,7.0603 1.00234,5.52046 0.77564,3.59326 1.31099,5.80181 2.60739,-1.43376 3.08808,-2.12351 4.58966,-3.28631 1.30522,-0.76902 1.92004,-1.47057 3.53797,-2.64568 1.27837,-0.92848 1.08186,-0.67955 1.93229,-1.80383 0.44607,-0.5897 1.04211,-1.2202 1.3068,-1.96372 0.26466,-0.74342 0.2126,-0.75472 0.2274,-1.4438 l 3e-5,0 z" style="fill:#ffffff;fill-opacity:1;stroke:none"/>
    <path sodipodi:nodetypes="czcsszccssccssszc" id="path3681-2-1-6" d="m 436.29629,633.11088 0,0 m 9.91687,-7.42785 c 0.0148,-0.68907 0.51983,-2.96852 -0.21079,-5.88254 -0.30465,-1.21511 -0.57567,-2.30785 -1.36257,-3.56842 -0.46638,-0.74711 -1.2145,-1.30675 -2.76406,-2.04105 -1.54956,-0.73429 -3.77932,-1.37645 -5.52103,-1.68574 -1.38522,-0.27242 -1.89924,-0.43669 -4.77907,-0.47022 1.03006,4.09523 0.57309,3.23157 1.14065,6.14643 0.79457,4.08075 0.17546,0.56922 1.17233,7.57122 0.79082,5.55471 1.44914,7.54134 0.86974,8.91383 1.11246,0.002 0.74844,-0.41317 2.68529,-0.87102 1.25877,-0.39743 2.64212,-1.33745 4.32759,-2.11152 1.55974,-0.71633 1.8018,-0.84212 2.65223,-1.54837 0.56884,-0.47238 0.92599,-0.66282 1.19068,-1.40634 0.26466,-0.74342 0.3338,-0.75915 0.41319,-1.4438 l 0.18582,-1.60246 z" style="fill:#ffffff;fill-opacity:1;stroke:none"/>
    <path sodipodi:nodetypes="czcsszsccsscscssszcccc" id="path3681-2-1-5" d="m 452.95971,685.2282 0,0 m 9.87373,-9.89801 c 0.0476,-1.05035 0.26862,-0.58139 -0.14744,-2.08793 -0.31591,-1.14389 -0.68263,-1.73344 -1.05597,-2.39802 -0.47568,-0.84675 -0.5788,-1.3247 -2.15668,-2.62959 -1.57788,-1.30489 -2.54431,-1.95239 -3.86085,-2.33931 -1.61434,-0.47444 -2.94803,-0.55636 -4.08856,-0.67237 -1.32716,-0.0634 -1.4901,-0.0479 -2.18687,-0.0582 0.37319,4.09523 0.26121,3.10254 0.5588,5.98272 0.42283,4.0923 0.38113,1.94172 0.79552,8.06633 0.38057,5.62498 0.51023,6.16199 0.51023,6.16199 0,0 0.32857,0.0118 2.1794,-0.87358 1.36921,-0.65497 1.20868,-0.54945 1.99542,-1.00225 1.18909,-0.69935 0.29707,-0.10952 1.85526,-1.11551 1.53652,-0.992 1.62136,-1.12342 2.47179,-1.82967 0.56884,-0.47238 1.75107,-1.93343 2.01576,-2.67695 0.26466,-0.74342 0.44105,-0.76717 0.68721,-1.41095 l 0.427,-1.11669 0,-5e-5 0,3e-5 -2e-5,0 z" style="fill:#ffffff;fill-opacity:1;stroke:none"/>
  </g>
  <metadata>
    <rdf:RDF>
      <cc:Work>
        <dc:format>image/svg+xml</dc:format>
        <dc:type rdf:resource="http://purl.org/dc/dcmitype/StillImage"/>
        <cc:license rdf:resource="http://creativecommons.org/licenses/publicdomain/"/>
        <dc:publisher>
          <cc:Agent rdf:about="http://openclipart.org/">
            <dc:title>Open Clip Art Library</dc:title>
          </cc:Agent>
        </dc:publisher>
        <dc:title>Handshake with Black Outline (white man and woman, freshwater pearl bracelet)</dc:title>
        <dc:date>2010-04-25T16:46:09</dc:date>
        <dc:description>Handshake with black outline (white man and woman hands, freshwater pearl bracelet) - Poignée de main, prise de contact, serrement de main avec bord noir (main d'homme blanc et de femme avec bracelet de perles) - Händedruck, Handschlag, schwarz Umriss (weißen Mann und Frau Hände, Zuchtperlen Armband) - Stretta di mano, contatto con contorno / bordo nero (mani di uomo e donna bianchi con braccialetto di perle)</dc:description>
        <dc:source>http://openclipart.org/detail/57091/handshake-with-black-outline-(white-man-and-woman-freshwater-pearl-bracelet)-by-palomaironique</dc:source>
        <dc:creator>
          <cc:Agent>
            <dc:title>palomaironique</dc:title>
          </cc:Agent>
        </dc:creator>
        <dc:subject>
          <rdf:Bag>
            <rdf:li>Armband</rdf:li>
            <rdf:li>Frau</rdf:li>
            <rdf:li>Freunde</rdf:li>
            <rdf:li>Geschäftspartner</rdf:li>
            <rdf:li>Handschlag</rdf:li>
            <rdf:li>Hände</rdf:li>
            <rdf:li>Händedruck</rdf:li>
            <rdf:li>Mann</rdf:li>
            <rdf:li>Menschen</rdf:li>
            <rdf:li>People</rdf:li>
            <rdf:li>Perlen</rdf:li>
            <rdf:li>Umriss</rdf:li>
            <rdf:li>Zuchtperlen</rdf:li>
            <rdf:li>amici</rdf:li>
            <rdf:li>amis</rdf:li>
            <rdf:li>bianchi</rdf:li>
            <rdf:li>black</rdf:li>
            <rdf:li>blanc</rdf:li>
            <rdf:li>blanche</rdf:li>
            <rdf:li>bord</rdf:li>
            <rdf:li>bordo</rdf:li>
            <rdf:li>braccialetto</rdf:li>
            <rdf:li>bracelet</rdf:li>
            <rdf:li>bracelet</rdf:li>
            <rdf:li>business</rdf:li>
            <rdf:li>clip art</rdf:li>
            <rdf:li>clipart</rdf:li>
            <rdf:li>contact</rdf:li>
            <rdf:li>contatto</rdf:li>
            <rdf:li>contorno</rdf:li>
            <rdf:li>contour</rdf:li>
            <rdf:li>donna</rdf:li>
            <rdf:li>entreprises</rdf:li>
            <rdf:li>femme</rdf:li>
            <rdf:li>freshwater</rdf:li>
            <rdf:li>friends</rdf:li>
            <rdf:li>gens</rdf:li>
            <rdf:li>hands</rdf:li>
            <rdf:li>hands</rdf:li>
            <rdf:li>handshake</rdf:li>
            <rdf:li>homme</rdf:li>
            <rdf:li>lavoro</rdf:li>
            <rdf:li>main</rdf:li>
            <rdf:li>main</rdf:li>
            <rdf:li>mains</rdf:li>
            <rdf:li>man</rdf:li>
            <rdf:li>mani</rdf:li>
            <rdf:li>mani</rdf:li>
            <rdf:li>mano</rdf:li>
            <rdf:li>mano</rdf:li>
            <rdf:li>nero</rdf:li>
            <rdf:li>noir</rdf:li>
            <rdf:li>outline</rdf:li>
            <rdf:li>pearl</rdf:li>
            <rdf:li>perle</rdf:li>
            <rdf:li>perles</rdf:li>
            <rdf:li>persone</rdf:li>
            <rdf:li>poignée</rdf:li>
            <rdf:li>prise</rdf:li>
            <rdf:li>remix</rdf:li>
            <rdf:li>schwarz</rdf:li>
            <rdf:li>serrement</rdf:li>
            <rdf:li>stretta</rdf:li>
            <rdf:li>uomini</rdf:li>
            <rdf:li>uomo</rdf:li>
            <rdf:li>weisse</rdf:li>
            <rdf:li>weiße</rdf:li>
            <rdf:li>white</rdf:li>
            <rdf:li>woman</rdf:li>
          </rdf:Bag>
        </dc:subject>
      </cc:Work>
      <cc:License rdf:about="http://creativecommons.org/licenses/publicdomain/">
        <cc:permits rdf:resource="http://creativecommons.org/ns#Reproduction"/>
        <cc:permits rdf:resource="http://creativecommons.org/ns#Distribution"/>
        <cc:permits rdf:resource="http://creativecommons.org/ns#DerivativeWorks"/>
      </cc:License>
    </rdf:RDF>
  </metadata>
</svg>
